<?xml version="1.0" encoding="iso-8859-1"?>
<!-- Generator: Adobe Illustrator 16.0.0, SVG Export Plug-In . SVG Version: 6.00 Build 0)  -->
<!DOCTYPE svg PUBLIC "-//W3C//DTD SVG 1.1//EN" "http://www.w3.org/Graphics/SVG/1.1/DTD/svg11.dtd">
<svg version="1.1" id="Capa_1" xmlns="http://www.w3.org/2000/svg" xmlns:xlink="http://www.w3.org/1999/xlink" x="0px" y="0px"
	 width="910px" height="910px" viewBox="0 0 910 910" style="enable-background:new 0 0 910 910;" xml:space="preserve">
<g>
	<path d="M175,753h-14V411H77v342H63c-11,0-20,9-20,20v14c0,11,9,20,20,20h112c11,0,20-9,20-20v-14C195,762,186,753,175,753z"/>
	<path d="M854,753h-14V411h-84v342h-14c-11,0-20,9-20,20v14c0,11,9,20,20,20h112c11,0,20-9,20-20v-14C874,762,865,753,854,753z"/>
	<polygon points="340.2,103 340,103 210.7,103 210.8,103.2 317.3,368 446.4,368 340.2,103.2 	"/>
	<polygon points="592.7,103 463.3,103 569.9,368 698.9,368 592.7,103.2 	"/>
	<path d="M87.6,103H20.3C9.3,103,0,111.5,0,122.5v227.4C0,357.8,4.9,365,11.5,368h182.4L87.6,103z"/>
	<path d="M890.4,103H715.8L822.4,368h76.8c6.6-3,10.8-10.2,10.8-18.1V122.5C910,111.5,901.4,103,890.4,103z"/>
</g>
<g>
</g>
<g>
</g>
<g>
</g>
<g>
</g>
<g>
</g>
<g>
</g>
<g>
</g>
<g>
</g>
<g>
</g>
<g>
</g>
<g>
</g>
<g>
</g>
<g>
</g>
<g>
</g>
<g>
</g>
</svg>
